<svg width="615" height="447" viewBox="0 0 615 447" fill="none" xmlns="http://www.w3.org/2000/svg">
<rect width="600" height="447" rx="20" fill="#D9D9D9"/>
<path d="M70.58 109.764H75.92L88.28 139.764L100.16 109.764H105.44L111.5 151.764H104.9L100.76 123.264L89.3 151.944H86.9L75.2 123.744L71.6 151.764H65.12L70.58 109.764ZM130.593 152.244C128.473 152.244 126.513 151.924 124.713 151.284C122.953 150.604 121.433 149.664 120.153 148.464C118.873 147.224 117.873 145.764 117.153 144.084C116.433 142.364 116.073 140.444 116.073 138.324C116.073 136.124 116.453 134.164 117.213 132.444C117.973 130.684 118.993 129.204 120.273 128.004C121.553 126.764 123.053 125.824 124.773 125.184C126.533 124.544 128.373 124.224 130.293 124.224C132.413 124.224 134.293 124.604 135.933 125.364C137.613 126.084 139.013 127.084 140.133 128.364C141.293 129.644 142.173 131.124 142.773 132.804C143.373 134.484 143.673 136.244 143.673 138.084V139.644H122.373C122.693 142.004 123.633 143.824 125.193 145.104C126.753 146.344 128.713 146.964 131.073 146.964C132.713 146.964 134.213 146.664 135.573 146.064C136.973 145.464 138.133 144.624 139.053 143.544L142.773 146.904C141.373 148.664 139.613 150.004 137.493 150.924C135.413 151.804 133.113 152.244 130.593 152.244ZM129.933 129.504C128.053 129.504 126.453 130.024 125.133 131.064C123.813 132.104 122.933 133.564 122.493 135.444H137.373C137.053 133.764 136.233 132.364 134.913 131.244C133.633 130.084 131.973 129.504 129.933 129.504ZM162.049 152.244C159.889 152.244 157.929 151.904 156.169 151.224C154.449 150.504 152.969 149.524 151.729 148.284C150.489 147.044 149.529 145.564 148.849 143.844C148.209 142.124 147.889 140.244 147.889 138.204C147.889 136.004 148.249 134.044 148.969 132.324C149.689 130.604 150.689 129.144 151.969 127.944C153.249 126.744 154.749 125.824 156.469 125.184C158.189 124.544 160.049 124.224 162.049 124.224C164.289 124.224 166.329 124.604 168.169 125.364C170.009 126.084 171.509 127.064 172.669 128.304L169.249 132.804C168.449 131.884 167.469 131.144 166.309 130.584C165.149 130.024 163.869 129.744 162.469 129.744C160.149 129.744 158.249 130.504 156.769 132.024C155.289 133.544 154.549 135.564 154.549 138.084C154.549 139.364 154.749 140.524 155.149 141.564C155.549 142.604 156.109 143.524 156.829 144.324C157.549 145.084 158.409 145.684 159.409 146.124C160.409 146.524 161.509 146.724 162.709 146.724C164.149 146.724 165.429 146.444 166.549 145.884C167.669 145.284 168.629 144.524 169.429 143.604L173.209 147.384C172.049 148.904 170.509 150.104 168.589 150.984C166.669 151.824 164.489 152.244 162.049 152.244ZM184.401 130.344H175.641V124.704H199.581V130.344H190.821V151.764H184.401V130.344ZM216.137 152.244C214.057 152.244 212.137 151.904 210.377 151.224C208.617 150.504 207.097 149.524 205.817 148.284C204.537 147.044 203.537 145.564 202.817 143.844C202.097 142.084 201.737 140.184 201.737 138.144C201.737 136.064 202.097 134.184 202.817 132.504C203.537 130.784 204.537 129.324 205.817 128.124C207.137 126.884 208.677 125.924 210.437 125.244C212.197 124.564 214.097 124.224 216.137 124.224C218.217 124.224 220.137 124.564 221.897 125.244C223.657 125.924 225.177 126.884 226.457 128.124C227.737 129.364 228.717 130.844 229.397 132.564C230.117 134.244 230.477 136.104 230.477 138.144C230.477 140.224 230.117 142.144 229.397 143.904C228.677 145.624 227.657 147.104 226.337 148.344C225.057 149.584 223.537 150.544 221.777 151.224C220.057 151.904 218.177 152.244 216.137 152.244ZM216.137 146.724C218.537 146.724 220.417 145.924 221.777 144.324C223.177 142.724 223.877 140.664 223.877 138.144C223.877 135.664 223.177 133.644 221.777 132.084C220.417 130.524 218.537 129.744 216.137 129.744C213.737 129.744 211.837 130.544 210.437 132.144C209.077 133.704 208.397 135.704 208.397 138.144C208.397 139.344 208.577 140.484 208.937 141.564C209.297 142.604 209.797 143.504 210.437 144.264C211.117 145.024 211.937 145.624 212.897 146.064C213.857 146.504 214.937 146.724 216.137 146.724ZM248.572 146.124H251.752C252.792 144.044 253.592 141.684 254.152 139.044C254.712 136.364 254.992 133.164 254.992 129.444V124.704H275.392V146.124H279.832V158.064H274.432V151.764H253.912V158.064H248.572V146.124ZM260.812 131.664C260.812 134.584 260.592 137.224 260.152 139.584C259.712 141.944 259.072 144.124 258.232 146.124H268.972V130.344H260.812V131.664ZM283.538 152.304C283.098 152.304 282.738 152.284 282.458 152.244C282.218 152.204 281.998 152.164 281.798 152.124V145.884C281.958 145.924 282.118 145.944 282.278 145.944C282.438 145.944 282.578 145.944 282.698 145.944C283.338 145.944 283.898 145.724 284.378 145.284C284.898 144.804 285.318 144.024 285.638 142.944C285.998 141.824 286.258 140.344 286.418 138.504C286.618 136.624 286.718 134.284 286.718 131.484V124.704H306.578V151.764H300.158V130.344H292.658V134.424C292.658 137.824 292.438 140.684 291.998 143.004C291.598 145.284 290.998 147.124 290.198 148.524C289.398 149.884 288.438 150.864 287.318 151.464C286.198 152.024 284.938 152.304 283.538 152.304ZM312.358 150.864L318.598 142.044C315.158 140.724 313.438 138.024 313.438 133.944C313.438 130.864 314.418 128.564 316.378 127.044C318.378 125.484 321.478 124.704 325.678 124.704H336.838V151.764H330.478V143.064H325.258L319.318 151.764H312.358V150.864ZM330.478 138.324V129.804H325.978C323.938 129.804 322.418 130.084 321.418 130.644C320.418 131.164 319.918 132.304 319.918 134.064C319.918 135.704 320.358 136.824 321.238 137.424C322.158 138.024 323.638 138.324 325.678 138.324H330.478ZM360.216 124.704H373.896C376.696 124.704 378.796 125.304 380.196 126.504C381.596 127.704 382.296 129.264 382.296 131.184C382.296 132.664 381.896 133.884 381.096 134.844C380.336 135.764 379.356 136.404 378.156 136.764C380.116 137.044 381.716 137.744 382.956 138.864C384.236 139.944 384.876 141.564 384.876 143.724C384.876 146.244 383.956 148.224 382.116 149.664C380.276 151.064 377.556 151.764 373.956 151.764H360.216V124.704ZM366.576 139.344V146.844H372.456C374.496 146.844 375.976 146.544 376.896 145.944C377.816 145.304 378.276 144.344 378.276 143.064C378.276 141.704 377.816 140.744 376.896 140.184C375.976 139.624 374.596 139.344 372.756 139.344H366.576ZM366.576 129.624V135.264H372.036C373.396 135.264 374.436 135.064 375.156 134.664C375.916 134.224 376.296 133.484 376.296 132.444C376.296 131.404 375.936 130.684 375.216 130.284C374.496 129.844 373.416 129.624 371.976 129.624H366.576ZM401.256 152.244C399.576 152.244 397.956 151.924 396.396 151.284C394.876 150.604 393.516 149.644 392.316 148.404C391.156 147.164 390.216 145.684 389.496 143.964C388.776 142.244 388.416 140.324 388.416 138.204C388.416 136.084 388.756 134.164 389.436 132.444C390.156 130.724 391.096 129.264 392.256 128.064C393.416 126.824 394.776 125.884 396.336 125.244C397.896 124.564 399.536 124.224 401.256 124.224C403.416 124.224 405.296 124.644 406.896 125.484C408.536 126.324 409.756 127.364 410.556 128.604V124.704H416.556V151.764H410.556V147.684C409.636 149.044 408.356 150.144 406.716 150.984C405.116 151.824 403.296 152.244 401.256 152.244ZM402.696 146.604C403.816 146.604 404.836 146.384 405.756 145.944C406.676 145.504 407.456 144.924 408.096 144.204C408.776 143.444 409.296 142.564 409.656 141.564C410.016 140.564 410.196 139.484 410.196 138.324V137.844C410.196 136.724 410.016 135.684 409.656 134.724C409.336 133.764 408.856 132.924 408.216 132.204C407.576 131.484 406.776 130.924 405.816 130.524C404.896 130.084 403.856 129.864 402.696 129.864C401.656 129.864 400.676 130.044 399.756 130.404C398.876 130.764 398.096 131.304 397.416 132.024C396.736 132.704 396.196 133.564 395.796 134.604C395.396 135.644 395.196 136.844 395.196 138.204C395.196 140.764 395.896 142.804 397.296 144.324C398.696 145.844 400.496 146.604 402.696 146.604ZM455.337 124.704H461.757V151.764H424.377V124.704H430.737V146.124H439.857V124.704H446.277V146.124H455.337V124.704ZM482.214 152.244C480.094 152.244 478.134 151.924 476.334 151.284C474.574 150.604 473.054 149.664 471.774 148.464C470.494 147.224 469.494 145.764 468.774 144.084C468.054 142.364 467.694 140.444 467.694 138.324C467.694 136.124 468.074 134.164 468.834 132.444C469.594 130.684 470.614 129.204 471.894 128.004C473.174 126.764 474.674 125.824 476.394 125.184C478.154 124.544 479.994 124.224 481.914 124.224C484.034 124.224 485.914 124.604 487.554 125.364C489.234 126.084 490.634 127.084 491.754 128.364C492.914 129.644 493.794 131.124 494.394 132.804C494.994 134.484 495.294 136.244 495.294 138.084V139.644H473.994C474.314 142.004 475.254 143.824 476.814 145.104C478.374 146.344 480.334 146.964 482.694 146.964C484.334 146.964 485.834 146.664 487.194 146.064C488.594 145.464 489.754 144.624 490.674 143.544L494.394 146.904C492.994 148.664 491.234 150.004 489.114 150.924C487.034 151.804 484.734 152.244 482.214 152.244ZM481.554 129.504C479.674 129.504 478.074 130.024 476.754 131.064C475.434 132.104 474.554 133.564 474.114 135.444H488.994C488.674 133.764 487.854 132.364 486.534 131.244C485.254 130.084 483.594 129.504 481.554 129.504ZM501.31 124.704H507.67V141.444L521.47 124.704H526.15V151.764H519.79V134.364L505.45 151.764H501.31V124.704ZM513.73 120.924C512.49 120.924 511.33 120.764 510.25 120.444C509.17 120.084 508.23 119.564 507.43 118.884C506.63 118.204 505.99 117.364 505.51 116.364C505.03 115.324 504.79 114.124 504.79 112.764H509.65C509.69 113.924 510.03 114.864 510.67 115.584C511.35 116.304 512.39 116.664 513.79 116.664C515.11 116.664 516.13 116.324 516.85 115.644C517.57 114.924 517.95 113.964 517.99 112.764H522.79C522.75 114.124 522.47 115.324 521.95 116.364C521.47 117.364 520.81 118.204 519.97 118.884C519.17 119.564 518.23 120.084 517.15 120.444C516.07 120.764 514.93 120.924 513.73 120.924ZM65.9 238.164V196.704H71.9V200.604C72.7 199.364 73.9 198.324 75.5 197.484C77.14 196.644 79.04 196.224 81.2 196.224C82.92 196.224 84.56 196.564 86.12 197.244C87.68 197.884 89.04 198.824 90.2 200.064C91.36 201.264 92.28 202.724 92.96 204.444C93.68 206.164 94.04 208.084 94.04 210.204C94.04 212.324 93.68 214.244 92.96 215.964C92.24 217.684 91.28 219.164 90.08 220.404C88.92 221.644 87.56 222.604 86 223.284C84.48 223.924 82.88 224.244 81.2 224.244C79.28 224.244 77.54 223.884 75.98 223.164C74.46 222.404 73.22 221.404 72.26 220.164V238.164H65.9ZM79.76 201.864C77.48 201.864 75.68 202.604 74.36 204.084C73.04 205.564 72.34 207.384 72.26 209.544V210.324C72.26 211.484 72.44 212.564 72.8 213.564C73.16 214.564 73.66 215.444 74.3 216.204C74.98 216.924 75.76 217.504 76.64 217.944C77.56 218.384 78.6 218.604 79.76 218.604C81.96 218.604 83.76 217.844 85.16 216.324C86.56 214.804 87.26 212.764 87.26 210.204C87.26 208.844 87.06 207.644 86.66 206.604C86.26 205.564 85.72 204.704 85.04 204.024C84.36 203.304 83.56 202.764 82.64 202.404C81.76 202.044 80.8 201.864 79.76 201.864ZM112.78 224.244C110.66 224.244 108.7 223.924 106.9 223.284C105.14 222.604 103.62 221.664 102.34 220.464C101.06 219.224 100.06 217.764 99.3402 216.084C98.6202 214.364 98.2602 212.444 98.2602 210.324C98.2602 208.124 98.6402 206.164 99.4002 204.444C100.16 202.684 101.18 201.204 102.46 200.004C103.74 198.764 105.24 197.824 106.96 197.184C108.72 196.544 110.56 196.224 112.48 196.224C114.6 196.224 116.48 196.604 118.12 197.364C119.8 198.084 121.2 199.084 122.32 200.364C123.48 201.644 124.36 203.124 124.96 204.804C125.56 206.484 125.86 208.244 125.86 210.084V211.644H104.56C104.88 214.004 105.82 215.824 107.38 217.104C108.94 218.344 110.9 218.964 113.26 218.964C114.9 218.964 116.4 218.664 117.76 218.064C119.16 217.464 120.32 216.624 121.24 215.544L124.96 218.904C123.56 220.664 121.8 222.004 119.68 222.924C117.6 223.804 115.3 224.244 112.78 224.244ZM112.12 201.504C110.24 201.504 108.64 202.024 107.32 203.064C106 204.104 105.12 205.564 104.68 207.444H119.56C119.24 205.764 118.42 204.364 117.1 203.244C115.82 202.084 114.16 201.504 112.12 201.504ZM131.877 196.704H138.237V206.904H141.177L148.497 196.704H155.217V197.544L146.397 209.064L157.317 222.864V223.764H150.177L140.937 211.884H138.237V223.764H131.877V196.704ZM161.077 224.304C160.637 224.304 160.277 224.284 159.997 224.244C159.757 224.204 159.537 224.164 159.337 224.124V217.884C159.497 217.924 159.657 217.944 159.817 217.944C159.977 217.944 160.117 217.944 160.237 217.944C160.877 217.944 161.437 217.724 161.917 217.284C162.437 216.804 162.857 216.024 163.177 214.944C163.537 213.824 163.797 212.344 163.957 210.504C164.157 208.624 164.257 206.284 164.257 203.484V196.704H184.117V223.764H177.697V202.344H170.197V206.424C170.197 209.824 169.977 212.684 169.537 215.004C169.137 217.284 168.537 219.124 167.737 220.524C166.937 221.884 165.977 222.864 164.857 223.464C163.737 224.024 162.477 224.304 161.077 224.304ZM202.917 224.244C201.237 224.244 199.617 223.924 198.057 223.284C196.537 222.604 195.177 221.644 193.977 220.404C192.817 219.164 191.877 217.684 191.157 215.964C190.437 214.244 190.077 212.324 190.077 210.204C190.077 208.084 190.417 206.164 191.097 204.444C191.817 202.724 192.757 201.264 193.917 200.064C195.077 198.824 196.437 197.884 197.997 197.244C199.557 196.564 201.197 196.224 202.917 196.224C205.077 196.224 206.957 196.644 208.557 197.484C210.197 198.324 211.417 199.364 212.217 200.604V196.704H218.217V223.764H212.217V219.684C211.297 221.044 210.017 222.144 208.377 222.984C206.777 223.824 204.957 224.244 202.917 224.244ZM204.357 218.604C205.477 218.604 206.497 218.384 207.417 217.944C208.337 217.504 209.117 216.924 209.757 216.204C210.437 215.444 210.957 214.564 211.317 213.564C211.677 212.564 211.857 211.484 211.857 210.324V209.844C211.857 208.724 211.677 207.684 211.317 206.724C210.997 205.764 210.517 204.924 209.877 204.204C209.237 203.484 208.437 202.924 207.477 202.524C206.557 202.084 205.517 201.864 204.357 201.864C203.317 201.864 202.337 202.044 201.417 202.404C200.537 202.764 199.757 203.304 199.077 204.024C198.397 204.704 197.857 205.564 197.457 206.604C197.057 207.644 196.857 208.844 196.857 210.204C196.857 212.764 197.557 214.804 198.957 216.324C200.357 217.844 202.157 218.604 204.357 218.604ZM228.617 196.704H233.777L241.577 213.564L249.017 196.704H254.237L258.857 223.764H252.857L250.097 206.964L242.477 223.764H240.017L232.457 207.264L229.757 223.764H223.997L228.617 196.704ZM275.691 204.924C279.451 204.924 282.291 205.684 284.211 207.204C286.171 208.724 287.151 211.064 287.151 214.224C287.151 217.344 286.151 219.724 284.151 221.364C282.191 222.964 279.171 223.764 275.091 223.764H264.591V196.704H270.951V204.924H275.691ZM290.211 196.704H296.571V223.764H290.211V196.704ZM274.371 218.604C276.291 218.604 277.811 218.324 278.931 217.764C280.091 217.204 280.671 216.024 280.671 214.224C280.671 212.664 280.151 211.584 279.111 210.984C278.111 210.384 276.631 210.084 274.671 210.084H270.951V218.604H274.371Z" fill="black"/>
</svg>
