<svg width="615" height="250" viewBox="0 0 615 250" fill="none" xmlns="http://www.w3.org/2000/svg">
<rect width="600" height="250" rx="20" fill="#D9D9D9"/>
<path d="M70.58 68H75.92L88.28 98L100.16 68H105.44L111.5 110H104.9L100.76 81.5L89.3 110.18H86.9L75.2 81.98L71.6 110H65.12L70.58 68ZM130.593 110.48C128.473 110.48 126.513 110.16 124.713 109.52C122.953 108.84 121.433 107.9 120.153 106.7C118.873 105.46 117.873 104 117.153 102.32C116.433 100.6 116.073 98.68 116.073 96.56C116.073 94.36 116.453 92.4 117.213 90.68C117.973 88.92 118.993 87.44 120.273 86.24C121.553 85 123.053 84.06 124.773 83.42C126.533 82.78 128.373 82.46 130.293 82.46C132.413 82.46 134.293 82.84 135.933 83.6C137.613 84.32 139.013 85.32 140.133 86.6C141.293 87.88 142.173 89.36 142.773 91.04C143.373 92.72 143.673 94.48 143.673 96.32V97.88H122.373C122.693 100.24 123.633 102.06 125.193 103.34C126.753 104.58 128.713 105.2 131.073 105.2C132.713 105.2 134.213 104.9 135.573 104.3C136.973 103.7 138.133 102.86 139.053 101.78L142.773 105.14C141.373 106.9 139.613 108.24 137.493 109.16C135.413 110.04 133.113 110.48 130.593 110.48ZM129.933 87.74C128.053 87.74 126.453 88.26 125.133 89.3C123.813 90.34 122.933 91.8 122.493 93.68H137.373C137.053 92 136.233 90.6 134.913 89.48C133.633 88.32 131.973 87.74 129.933 87.74ZM162.049 110.48C159.889 110.48 157.929 110.14 156.169 109.46C154.449 108.74 152.969 107.76 151.729 106.52C150.489 105.28 149.529 103.8 148.849 102.08C148.209 100.36 147.889 98.48 147.889 96.44C147.889 94.24 148.249 92.28 148.969 90.56C149.689 88.84 150.689 87.38 151.969 86.18C153.249 84.98 154.749 84.06 156.469 83.42C158.189 82.78 160.049 82.46 162.049 82.46C164.289 82.46 166.329 82.84 168.169 83.6C170.009 84.32 171.509 85.3 172.669 86.54L169.249 91.04C168.449 90.12 167.469 89.38 166.309 88.82C165.149 88.26 163.869 87.98 162.469 87.98C160.149 87.98 158.249 88.74 156.769 90.26C155.289 91.78 154.549 93.8 154.549 96.32C154.549 97.6 154.749 98.76 155.149 99.8C155.549 100.84 156.109 101.76 156.829 102.56C157.549 103.32 158.409 103.92 159.409 104.36C160.409 104.76 161.509 104.96 162.709 104.96C164.149 104.96 165.429 104.68 166.549 104.12C167.669 103.52 168.629 102.76 169.429 101.84L173.209 105.62C172.049 107.14 170.509 108.34 168.589 109.22C166.669 110.06 164.489 110.48 162.049 110.48ZM184.401 88.58H175.641V82.94H199.581V88.58H190.821V110H184.401V88.58ZM216.137 110.48C214.057 110.48 212.137 110.14 210.377 109.46C208.617 108.74 207.097 107.76 205.817 106.52C204.537 105.28 203.537 103.8 202.817 102.08C202.097 100.32 201.737 98.42 201.737 96.38C201.737 94.3 202.097 92.42 202.817 90.74C203.537 89.02 204.537 87.56 205.817 86.36C207.137 85.12 208.677 84.16 210.437 83.48C212.197 82.8 214.097 82.46 216.137 82.46C218.217 82.46 220.137 82.8 221.897 83.48C223.657 84.16 225.177 85.12 226.457 86.36C227.737 87.6 228.717 89.08 229.397 90.8C230.117 92.48 230.477 94.34 230.477 96.38C230.477 98.46 230.117 100.38 229.397 102.14C228.677 103.86 227.657 105.34 226.337 106.58C225.057 107.82 223.537 108.78 221.777 109.46C220.057 110.14 218.177 110.48 216.137 110.48ZM216.137 104.96C218.537 104.96 220.417 104.16 221.777 102.56C223.177 100.96 223.877 98.9 223.877 96.38C223.877 93.9 223.177 91.88 221.777 90.32C220.417 88.76 218.537 87.98 216.137 87.98C213.737 87.98 211.837 88.78 210.437 90.38C209.077 91.94 208.397 93.94 208.397 96.38C208.397 97.58 208.577 98.72 208.937 99.8C209.297 100.84 209.797 101.74 210.437 102.5C211.117 103.26 211.937 103.86 212.897 104.3C213.857 104.74 214.937 104.96 216.137 104.96ZM248.572 104.36H251.752C252.792 102.28 253.592 99.92 254.152 97.28C254.712 94.6 254.992 91.4 254.992 87.68V82.94H275.392V104.36H279.832V116.3H274.432V110H253.912V116.3H248.572V104.36ZM260.812 89.9C260.812 92.82 260.592 95.46 260.152 97.82C259.712 100.18 259.072 102.36 258.232 104.36H268.972V88.58H260.812V89.9ZM283.538 110.54C283.098 110.54 282.738 110.52 282.458 110.48C282.218 110.44 281.998 110.4 281.798 110.36V104.12C281.958 104.16 282.118 104.18 282.278 104.18C282.438 104.18 282.578 104.18 282.698 104.18C283.338 104.18 283.898 103.96 284.378 103.52C284.898 103.04 285.318 102.26 285.638 101.18C285.998 100.06 286.258 98.58 286.418 96.74C286.618 94.86 286.718 92.52 286.718 89.72V82.94H306.578V110H300.158V88.58H292.658V92.66C292.658 96.06 292.438 98.92 291.998 101.24C291.598 103.52 290.998 105.36 290.198 106.76C289.398 108.12 288.438 109.1 287.318 109.7C286.198 110.26 284.938 110.54 283.538 110.54ZM312.358 109.1L318.598 100.28C315.158 98.96 313.438 96.26 313.438 92.18C313.438 89.1 314.418 86.8 316.378 85.28C318.378 83.72 321.478 82.94 325.678 82.94H336.838V110H330.478V101.3H325.258L319.318 110H312.358V109.1ZM330.478 96.56V88.04H325.978C323.938 88.04 322.418 88.32 321.418 88.88C320.418 89.4 319.918 90.54 319.918 92.3C319.918 93.94 320.358 95.06 321.238 95.66C322.158 96.26 323.638 96.56 325.678 96.56H330.478ZM360.216 82.94H373.896C376.696 82.94 378.796 83.54 380.196 84.74C381.596 85.94 382.296 87.5 382.296 89.42C382.296 90.9 381.896 92.12 381.096 93.08C380.336 94 379.356 94.64 378.156 95C380.116 95.28 381.716 95.98 382.956 97.1C384.236 98.18 384.876 99.8 384.876 101.96C384.876 104.48 383.956 106.46 382.116 107.9C380.276 109.3 377.556 110 373.956 110H360.216V82.94ZM366.576 97.58V105.08H372.456C374.496 105.08 375.976 104.78 376.896 104.18C377.816 103.54 378.276 102.58 378.276 101.3C378.276 99.94 377.816 98.98 376.896 98.42C375.976 97.86 374.596 97.58 372.756 97.58H366.576ZM366.576 87.86V93.5H372.036C373.396 93.5 374.436 93.3 375.156 92.9C375.916 92.46 376.296 91.72 376.296 90.68C376.296 89.64 375.936 88.92 375.216 88.52C374.496 88.08 373.416 87.86 371.976 87.86H366.576ZM401.256 110.48C399.576 110.48 397.956 110.16 396.396 109.52C394.876 108.84 393.516 107.88 392.316 106.64C391.156 105.4 390.216 103.92 389.496 102.2C388.776 100.48 388.416 98.56 388.416 96.44C388.416 94.32 388.756 92.4 389.436 90.68C390.156 88.96 391.096 87.5 392.256 86.3C393.416 85.06 394.776 84.12 396.336 83.48C397.896 82.8 399.536 82.46 401.256 82.46C403.416 82.46 405.296 82.88 406.896 83.72C408.536 84.56 409.756 85.6 410.556 86.84V82.94H416.556V110H410.556V105.92C409.636 107.28 408.356 108.38 406.716 109.22C405.116 110.06 403.296 110.48 401.256 110.48ZM402.696 104.84C403.816 104.84 404.836 104.62 405.756 104.18C406.676 103.74 407.456 103.16 408.096 102.44C408.776 101.68 409.296 100.8 409.656 99.8C410.016 98.8 410.196 97.72 410.196 96.56V96.08C410.196 94.96 410.016 93.92 409.656 92.96C409.336 92 408.856 91.16 408.216 90.44C407.576 89.72 406.776 89.16 405.816 88.76C404.896 88.32 403.856 88.1 402.696 88.1C401.656 88.1 400.676 88.28 399.756 88.64C398.876 89 398.096 89.54 397.416 90.26C396.736 90.94 396.196 91.8 395.796 92.84C395.396 93.88 395.196 95.08 395.196 96.44C395.196 99 395.896 101.04 397.296 102.56C398.696 104.08 400.496 104.84 402.696 104.84ZM455.337 82.94H461.757V110H424.377V82.94H430.737V104.36H439.857V82.94H446.277V104.36H455.337V82.94ZM482.214 110.48C480.094 110.48 478.134 110.16 476.334 109.52C474.574 108.84 473.054 107.9 471.774 106.7C470.494 105.46 469.494 104 468.774 102.32C468.054 100.6 467.694 98.68 467.694 96.56C467.694 94.36 468.074 92.4 468.834 90.68C469.594 88.92 470.614 87.44 471.894 86.24C473.174 85 474.674 84.06 476.394 83.42C478.154 82.78 479.994 82.46 481.914 82.46C484.034 82.46 485.914 82.84 487.554 83.6C489.234 84.32 490.634 85.32 491.754 86.6C492.914 87.88 493.794 89.36 494.394 91.04C494.994 92.72 495.294 94.48 495.294 96.32V97.88H473.994C474.314 100.24 475.254 102.06 476.814 103.34C478.374 104.58 480.334 105.2 482.694 105.2C484.334 105.2 485.834 104.9 487.194 104.3C488.594 103.7 489.754 102.86 490.674 101.78L494.394 105.14C492.994 106.9 491.234 108.24 489.114 109.16C487.034 110.04 484.734 110.48 482.214 110.48ZM481.554 87.74C479.674 87.74 478.074 88.26 476.754 89.3C475.434 90.34 474.554 91.8 474.114 93.68H488.994C488.674 92 487.854 90.6 486.534 89.48C485.254 88.32 483.594 87.74 481.554 87.74ZM501.31 82.94H507.67V99.68L521.47 82.94H526.15V110H519.79V92.6L505.45 110H501.31V82.94ZM513.73 79.16C512.49 79.16 511.33 79 510.25 78.68C509.17 78.32 508.23 77.8 507.43 77.12C506.63 76.44 505.99 75.6 505.51 74.6C505.03 73.56 504.79 72.36 504.79 71H509.65C509.69 72.16 510.03 73.1 510.67 73.82C511.35 74.54 512.39 74.9 513.79 74.9C515.11 74.9 516.13 74.56 516.85 73.88C517.57 73.16 517.95 72.2 517.99 71H522.79C522.75 72.36 522.47 73.56 521.95 74.6C521.47 75.6 520.81 76.44 519.97 77.12C519.17 77.8 518.23 78.32 517.15 78.68C516.07 79 514.93 79.16 513.73 79.16ZM65.9 196.4V154.94H71.9V158.84C72.7 157.6 73.9 156.56 75.5 155.72C77.14 154.88 79.04 154.46 81.2 154.46C82.92 154.46 84.56 154.8 86.12 155.48C87.68 156.12 89.04 157.06 90.2 158.3C91.36 159.5 92.28 160.96 92.96 162.68C93.68 164.4 94.04 166.32 94.04 168.44C94.04 170.56 93.68 172.48 92.96 174.2C92.24 175.92 91.28 177.4 90.08 178.64C88.92 179.88 87.56 180.84 86 181.52C84.48 182.16 82.88 182.48 81.2 182.48C79.28 182.48 77.54 182.12 75.98 181.4C74.46 180.64 73.22 179.64 72.26 178.4V196.4H65.9ZM79.76 160.1C77.48 160.1 75.68 160.84 74.36 162.32C73.04 163.8 72.34 165.62 72.26 167.78V168.56C72.26 169.72 72.44 170.8 72.8 171.8C73.16 172.8 73.66 173.68 74.3 174.44C74.98 175.16 75.76 175.74 76.64 176.18C77.56 176.62 78.6 176.84 79.76 176.84C81.96 176.84 83.76 176.08 85.16 174.56C86.56 173.04 87.26 171 87.26 168.44C87.26 167.08 87.06 165.88 86.66 164.84C86.26 163.8 85.72 162.94 85.04 162.26C84.36 161.54 83.56 161 82.64 160.64C81.76 160.28 80.8 160.1 79.76 160.1ZM112.78 182.48C110.66 182.48 108.7 182.16 106.9 181.52C105.14 180.84 103.62 179.9 102.34 178.7C101.06 177.46 100.06 176 99.3402 174.32C98.6202 172.6 98.2602 170.68 98.2602 168.56C98.2602 166.36 98.6402 164.4 99.4002 162.68C100.16 160.92 101.18 159.44 102.46 158.24C103.74 157 105.24 156.06 106.96 155.42C108.72 154.78 110.56 154.46 112.48 154.46C114.6 154.46 116.48 154.84 118.12 155.6C119.8 156.32 121.2 157.32 122.32 158.6C123.48 159.88 124.36 161.36 124.96 163.04C125.56 164.72 125.86 166.48 125.86 168.32V169.88H104.56C104.88 172.24 105.82 174.06 107.38 175.34C108.94 176.58 110.9 177.2 113.26 177.2C114.9 177.2 116.4 176.9 117.76 176.3C119.16 175.7 120.32 174.86 121.24 173.78L124.96 177.14C123.56 178.9 121.8 180.24 119.68 181.16C117.6 182.04 115.3 182.48 112.78 182.48ZM112.12 159.74C110.24 159.74 108.64 160.26 107.32 161.3C106 162.34 105.12 163.8 104.68 165.68H119.56C119.24 164 118.42 162.6 117.1 161.48C115.82 160.32 114.16 159.74 112.12 159.74ZM131.877 154.94H138.237V165.14H141.177L148.497 154.94H155.217V155.78L146.397 167.3L157.317 181.1V182H150.177L140.937 170.12H138.237V182H131.877V154.94ZM161.077 182.54C160.637 182.54 160.277 182.52 159.997 182.48C159.757 182.44 159.537 182.4 159.337 182.36V176.12C159.497 176.16 159.657 176.18 159.817 176.18C159.977 176.18 160.117 176.18 160.237 176.18C160.877 176.18 161.437 175.96 161.917 175.52C162.437 175.04 162.857 174.26 163.177 173.18C163.537 172.06 163.797 170.58 163.957 168.74C164.157 166.86 164.257 164.52 164.257 161.72V154.94H184.117V182H177.697V160.58H170.197V164.66C170.197 168.06 169.977 170.92 169.537 173.24C169.137 175.52 168.537 177.36 167.737 178.76C166.937 180.12 165.977 181.1 164.857 181.7C163.737 182.26 162.477 182.54 161.077 182.54ZM202.917 182.48C201.237 182.48 199.617 182.16 198.057 181.52C196.537 180.84 195.177 179.88 193.977 178.64C192.817 177.4 191.877 175.92 191.157 174.2C190.437 172.48 190.077 170.56 190.077 168.44C190.077 166.32 190.417 164.4 191.097 162.68C191.817 160.96 192.757 159.5 193.917 158.3C195.077 157.06 196.437 156.12 197.997 155.48C199.557 154.8 201.197 154.46 202.917 154.46C205.077 154.46 206.957 154.88 208.557 155.72C210.197 156.56 211.417 157.6 212.217 158.84V154.94H218.217V182H212.217V177.92C211.297 179.28 210.017 180.38 208.377 181.22C206.777 182.06 204.957 182.48 202.917 182.48ZM204.357 176.84C205.477 176.84 206.497 176.62 207.417 176.18C208.337 175.74 209.117 175.16 209.757 174.44C210.437 173.68 210.957 172.8 211.317 171.8C211.677 170.8 211.857 169.72 211.857 168.56V168.08C211.857 166.96 211.677 165.92 211.317 164.96C210.997 164 210.517 163.16 209.877 162.44C209.237 161.72 208.437 161.16 207.477 160.76C206.557 160.32 205.517 160.1 204.357 160.1C203.317 160.1 202.337 160.28 201.417 160.64C200.537 161 199.757 161.54 199.077 162.26C198.397 162.94 197.857 163.8 197.457 164.84C197.057 165.88 196.857 167.08 196.857 168.44C196.857 171 197.557 173.04 198.957 174.56C200.357 176.08 202.157 176.84 204.357 176.84ZM228.617 154.94H233.777L241.577 171.8L249.017 154.94H254.237L258.857 182H252.857L250.097 165.2L242.477 182H240.017L232.457 165.5L229.757 182H223.997L228.617 154.94ZM275.691 163.16C279.451 163.16 282.291 163.92 284.211 165.44C286.171 166.96 287.151 169.3 287.151 172.46C287.151 175.58 286.151 177.96 284.151 179.6C282.191 181.2 279.171 182 275.091 182H264.591V154.94H270.951V163.16H275.691ZM290.211 154.94H296.571V182H290.211V154.94ZM274.371 176.84C276.291 176.84 277.811 176.56 278.931 176C280.091 175.44 280.671 174.26 280.671 172.46C280.671 170.9 280.151 169.82 279.111 169.22C278.111 168.62 276.631 168.32 274.671 168.32H270.951V176.84H274.371Z" fill="black"/>
</svg>
