<svg width="26" height="19" viewBox="0 0 26 19" fill="none" xmlns="http://www.w3.org/2000/svg">
<path fill-rule="evenodd" clip-rule="evenodd" d="M0.501069 6.75H25.4989C25.4892 3.8707 25.3912 2.33786 24.4017 1.34835C23.3033 0.25 21.5355 0.25 18 0.25H8C4.46447 0.25 2.6967 0.25 1.59835 1.34835C0.608835 2.33786 0.510784 3.8707 0.501069 6.75ZM25.5 8.75H0.5V11.5C0.5 15.0355 0.5 16.8033 1.59835 17.9017C2.6967 19 4.46447 19 8 19H18C21.5355 19 23.3033 19 24.4017 17.9017C25.5 16.8033 25.5 15.0355 25.5 11.5V8.75ZM6.75 13C6.19772 13 5.75 13.4477 5.75 14C5.75 14.5523 6.19772 15 6.75 15H6.7625C7.31479 15 7.7625 14.5523 7.7625 14C7.7625 13.4477 7.31479 13 6.7625 13H6.75Z" fill="black"/>
</svg>
