<svg width="26" height="18" viewBox="0 0 26 18" fill="none" xmlns="http://www.w3.org/2000/svg">
<path fill-rule="evenodd" clip-rule="evenodd" d="M1.45368 7.2555C3.06048 4.70286 6.75799 0.25 13 0.25C19.242 0.25 22.9395 4.70286 24.5463 7.2555C25.0032 7.98136 25.2317 8.3443 25.2091 8.96071C25.1866 9.57712 24.9223 9.93595 24.3938 10.6536C22.5258 13.1898 18.4143 17.75 13 17.75C7.58562 17.75 3.47416 13.1898 1.60619 10.6536C1.07762 9.93595 0.813335 9.57712 0.790823 8.96071C0.768311 8.3443 0.996766 7.98136 1.45368 7.2555ZM13 14C15.7614 14 18 11.7614 18 9C18 6.23858 15.7614 4 13 4C10.2386 4 7.99998 6.23858 7.99998 9C7.99998 11.7614 10.2386 14 13 14Z" fill="black"/>
</svg>
