<svg width="15" height="20" viewBox="0 0 15 20" fill="none" xmlns="http://www.w3.org/2000/svg">
<path d="M8.15625 18.8425C8.83594 18.0118 9.66667 16.8916 10.6484 15.4819C11.6302 14.0973 12.5113 12.6624 13.2917 11.1772C14.0469 9.69192 14.4497 8.38289 14.5 7.25008C14.4497 5.18584 13.7448 3.47404 12.3854 2.11466C11.026 0.755289 9.31424 0.0504284 7.25 8.01086e-05C5.18576 0.0504284 3.47396 0.755289 2.11458 2.11466C0.755208 3.47404 0.0503472 5.18584 0 7.25008C0.0503472 8.38289 0.453125 9.69192 1.20833 11.1772C1.98872 12.6624 2.86979 14.0973 3.85156 15.4819C4.83333 16.8916 5.66406 18.0118 6.34375 18.8425C6.59549 19.1446 6.89757 19.2957 7.25 19.2957C7.60243 19.2957 7.90451 19.1446 8.15625 18.8425ZM7.25 4.83341C8.15625 4.85859 8.84853 5.26137 9.32682 6.04175C9.77995 6.8473 9.77995 7.65286 9.32682 8.45841C8.84853 9.2388 8.15625 9.64157 7.25 9.66675C6.34375 9.64157 5.65148 9.2388 5.17318 8.45841C4.72005 7.65286 4.72005 6.8473 5.17318 6.04175C5.65148 5.26137 6.34375 4.85859 7.25 4.83341Z" fill="#303030"/>
</svg>
