<svg width="26" height="20" viewBox="0 0 26 20" fill="none" xmlns="http://www.w3.org/2000/svg">
<path fill-rule="evenodd" clip-rule="evenodd" d="M1.18097 1.09682C0.5 1.92658 0.5 3.15939 0.5 5.625V6.5625C0.5 7.08027 0.919733 7.5 1.4375 7.5H1.75C3.13071 7.5 4.25 8.61929 4.25 10C4.25 11.3807 3.13071 12.5 1.75 12.5H1.4375C0.919733 12.5 0.5 12.9197 0.5 13.4375V14.375C0.5 16.8406 0.5 18.0734 1.18097 18.9032C1.30563 19.0551 1.44492 19.1944 1.59682 19.319C2.42658 20 3.65939 20 6.125 20H19.875C22.3406 20 23.5734 20 24.4032 19.319C24.5551 19.1944 24.6944 19.0551 24.819 18.9032C25.5 18.0734 25.5 16.8406 25.5 14.375V13.4375C25.5 12.9197 25.0803 12.5 24.5625 12.5H24.25C22.8693 12.5 21.75 11.3807 21.75 10C21.75 8.61929 22.8693 7.5 24.25 7.5H24.5625C25.0803 7.5 25.5 7.08027 25.5 6.5625V5.625C25.5 3.15939 25.5 1.92658 24.819 1.09682C24.6944 0.944918 24.5551 0.805632 24.4032 0.680969C23.5734 0 22.3406 0 19.875 0H6.125C3.65939 0 2.42658 0 1.59682 0.680969C1.44492 0.805632 1.30563 0.944918 1.18097 1.09682ZM12.9319 7.50743C12.7612 7.54511 12.6561 7.81697 12.446 8.36069C12.3264 8.66989 12.2667 8.82449 12.1549 8.92964C12.1235 8.95914 12.0895 8.9854 12.0532 9.00808C11.924 9.08891 11.7626 9.10391 11.44 9.1339C10.8938 9.18466 10.6207 9.21004 10.5373 9.37164C10.52 9.40511 10.5082 9.44135 10.5025 9.47885C10.4749 9.65991 10.6756 9.84947 11.0772 10.2286L11.1887 10.3339C11.3764 10.5111 11.4703 10.5997 11.5246 10.7103C11.5572 10.7767 11.579 10.8481 11.5892 10.9218C11.6063 11.0447 11.5788 11.1733 11.5238 11.4304L11.5042 11.5223C11.4056 11.9834 11.3563 12.2139 11.4178 12.3273C11.4731 12.4291 11.5749 12.4942 11.6874 12.4998C11.8126 12.506 11.989 12.3568 12.3418 12.0585C12.5743 11.8619 12.6905 11.7636 12.8196 11.7252C12.9375 11.6901 13.0625 11.6901 13.1804 11.7252C13.3095 11.7636 13.4257 11.8619 13.6582 12.0585C14.011 12.3568 14.1874 12.506 14.3126 12.4998C14.4251 12.4942 14.5269 12.4291 14.5822 12.3273C14.6437 12.2139 14.5944 11.9834 14.4958 11.5223L14.4762 11.4304C14.4212 11.1733 14.3937 11.0447 14.4108 10.9218C14.421 10.8481 14.4428 10.7767 14.4754 10.7103C14.5297 10.5997 14.6236 10.5111 14.8113 10.3339L14.9228 10.2286C15.3244 9.84947 15.5251 9.65991 15.4975 9.47885C15.4918 9.44135 15.48 9.40511 15.4627 9.37164C15.3793 9.21004 15.1062 9.18466 14.56 9.1339C14.2374 9.10391 14.076 9.08891 13.9468 9.00808C13.9105 8.9854 13.8765 8.95914 13.8451 8.92964C13.7333 8.82449 13.6736 8.66989 13.554 8.36069C13.3439 7.81697 13.2388 7.54511 13.0681 7.50743C13.0232 7.49752 12.9768 7.49752 12.9319 7.50743Z" fill="black"/>
</svg>
