<svg width="40" height="40" viewBox="0 0 40 40" fill="none" xmlns="http://www.w3.org/2000/svg">
<path d="M40 20C40 8.95431 31.0457 0 20 0V0C8.95431 0 0 8.95431 0 20V20C0 31.0457 8.95431 40 20 40V40C31.0457 40 40 31.0457 40 20V20Z" fill="#141414"/>
<path d="M13.5833 9L9 13.4643V29.5357H14.5V34L19.0833 29.5357H22.75L31 21.5V9H13.5833ZM29.1667 20.6071L25.5 24.1786H21.8333L18.625 27.3036V24.1786H14.5V10.7857H29.1667V20.6071Z" fill="white"/>
<path d="M26.4167 13.9107H24.5833V19.2679H26.4167V13.9107Z" fill="white"/>
<path d="M21.375 13.9107H19.5417V19.2679H21.375V13.9107Z" fill="white"/>
</svg>
